<!DOCTYPE svg PUBLIC "-//W3C//DTD SVG 20010904//EN"
 "http://www.w3.org/TR/2001/REC-SVG-20010904/DTD/svg10.dtd">
<svg version="1.0" xmlns="http://www.w3.org/2000/svg"
 width="500.000000pt" height="500.000000pt" viewBox="0 0 500.000000 500.000000"
 preserveAspectRatio="xMidYMid meet">

<g transform="translate(0.000000,500.000000) scale(0.100000,-0.100000)"
fill="#000000" stroke="none">
<path d="M2431 3889 c-48 -19 -84 -54 -107 -103 l-24 -51 0 -770 c0 -723 2
-772 19 -810 23 -51 74 -96 129 -114 81 -27 182 20 226 105 21 38 21 49 21
824 l0 785 -27 47 c-46 77 -159 119 -237 87z"/>
<path d="M3091 3508 c-54 -12 -125 -79 -141 -135 -8 -26 -10 -196 -8 -563 l3
-525 31 -45 c58 -83 168 -114 253 -71 45 24 98 81 108 119 5 15 8 263 8 552
l0 525 -28 47 c-46 79 -132 115 -226 96z"/>
<path d="M1748 3481 c-29 -18 -56 -47 -70 -73 l-23 -43 0 -525 c0 -289 3 -537
8 -553 4 -15 23 -45 43 -67 98 -108 270 -86 330 43 l24 52 0 520 c0 520 0 521
-22 565 -13 24 -40 58 -61 74 -33 27 -48 31 -110 34 -66 3 -76 1 -119 -27z"/>
<path d="M2990 1445 l0 -325 50 0 50 0 0 138 c0 165 15 212 72 231 52 17 108
-4 131 -49 16 -30 18 -51 13 -143 -2 -59 -2 -123 1 -142 6 -34 6 -35 54 -35
l49 0 0 165 c0 145 -2 171 -20 204 -49 96 -174 129 -250 65 -15 -13 -33 -24
-39 -24 -7 0 -11 39 -11 120 l0 120 -50 0 -50 0 0 -325z"/>
<path d="M2715 1701 c-16 -6 -21 -20 -25 -67 -5 -58 -6 -59 -37 -62 -31 -3
-33 -6 -33 -42 0 -36 2 -39 33 -42 l32 -3 5 -145 c3 -86 10 -154 17 -166 25
-44 104 -72 164 -59 24 5 29 12 29 35 0 48 -9 60 -46 60 -52 0 -64 26 -64 146
0 56 3 109 6 118 4 11 19 16 49 16 40 0 44 2 50 30 9 40 0 50 -44 50 -50 0
-61 14 -61 76 0 45 -3 52 -22 58 -27 7 -27 7 -53 -3z"/>
<path d="M1735 1581 c-42 -11 -87 -35 -109 -60 -18 -19 -18 -22 -2 -46 21 -31
33 -31 76 0 26 19 46 25 84 25 54 -1 75 -11 94 -47 11 -20 17 -83 8 -83 -2 0
-23 7 -46 15 -155 55 -306 -65 -243 -192 26 -53 60 -74 131 -80 53 -5 66 -2
108 21 37 20 49 24 56 14 4 -7 8 -17 8 -21 0 -5 19 -7 43 -5 l42 3 3 160 c2
149 1 163 -20 205 -37 73 -144 115 -233 91z m129 -271 c36 -13 34 -53 -3 -91
-25 -24 -38 -29 -78 -29 -64 0 -93 20 -93 65 0 24 7 39 22 49 25 18 113 21
152 6z"/>
<path d="M2110 1408 c0 -184 12 -226 69 -268 59 -41 157 -39 210 5 36 31 39
31 43 3 3 -20 9 -23 48 -23 l45 0 0 220 0 220 -46 3 -46 3 -6 -77 c-4 -42 -7
-108 -7 -145 0 -37 -5 -79 -11 -92 -33 -73 -169 -63 -190 14 -4 13 -7 86 -8
162 l-1 137 -50 0 -50 0 0 -162z"/>
</g>
</svg>